**ABCDEFGHIJKLMNOPQRSTUVWXYZabcdefghijklmnopqrstuvwxyz**************************
**PARASOLID !"#$%&'()*+,-./:;<=>?@[\]^_`{|}~0123456789**************************
**PART1;
MC=AMD64;
MC_MODEL=AMD64 Family 25 Model 33 Stepping 0, AuthenticAMD;
MC_ID=unknown;
OS=Windows_NT;
OS_RELEASE=unknown;
FRU=Parasolid Version 29.0, build 195, 12- 2-2016;
APPL=SOLIDWORKS 2017-2017033;
SITE=;
USER=unknown;
FORMAT=text;
GUISE=transmit;
KEY=JIS B 1174_M3x8;
FILE=JIS B 1174_M3x8.x_t;
DATE=Wed Jul 13 22:24:49 2022;
**PART2;
SCH=SCH_2900195_28101;
USFLD_SIZE=0;
**PART3;
**END_OF_HEADER*****************************************************************
T51 : TRANSMIT FILE created by modeller version 290019523 SCH_2900195_28101_1300
6203 0 12 33 CCCCCCI4 mesh1006 0 I8 polyline1008 0 CCCCCCCDI5 owner1040 0 CCCCCC
I13 boundary_mesh1006 0 I17 boundary_polyline1008 0 CCCA16 index_map_offset0 0 1
 dA9 index_map82 0 A17 node_id_index_map82 0 A20 schema_embedding_map82 0 A5 chi
ld12 0 A14 lowest_node_id0 0 1 dZ1 1288 0 2 0 0 0 0 0 0 1e3 1e-8 0 3 0 1 0 1 1 4
 5 6 7 0 0 8 9 10 0 0 0 0 0 0 70 11 CI9 list_type0 0 1 uI10 notransmit0 0 1 lCCC
DCCDI12 finger_index0 0 1 dI12 finger_block1012 0 CZ2 0 4 T1 0 0 2 20 1 11 11 13
 255 4 825 0 1 0 12 0 0 13 0 52 255 5 739 0 12 14 0 0 +-.00060999999999467 10842
02172485504e-34 0 -1 0 0 .001000000000033196 .866025403732428 .500000000090086 0
 0 1 31 255 6 879 0 15 16 0 0 +-.00060999999999467 1084202172485504e-34 0 -1 0 0
 0 0 1 .001000000000033196 29 255 7 881 0 17 18 0 -.000609999999981792 -14044462
6702503e-34 .000999999999996476 19 8 CCCCCCCA5 owner12 0 Z8 5 0 1 13 0 19 V0 16
 255 9 18 0 ?20 0 21 22 0 0 1 18 255 10 350 0 23 0 24 25 ?1 17 255 23 0 26 27 28
 10 29 30 0 31 +18 24 351 0 32 10 33 34 ?1 29 25 372 0 10 0 34 -.00165 -.0005773
50269189625 -.001 29 34 371 0 24 25 35 -.00165 .000577350269189626 -.001 29 35 3
70 0 33 34 36 -.00165 .00115470053837925 -298542157394566e-33 18 33 352 0 37 24
 38 35 ?1 29 36 369 0 38 35 39 -.00165 .000577350269189625 .001 18 38 353 0 40 3
3 41 36 ?1 29 39 367 0 41 36 42 -.00165 -.000577350269189626 .001 18 41 354 0 43
 38 44 39 ?1 29 42 596 0 44 39 45 -.00165 -.00115470053837925 295723028254991e-3
3 18 44 355 0 46 41 47 42 206155281280883e-22 1 29 45 630 0 47 42 48 -.000610000
000000682 -.000577350269189625 -.001 18 47 396 0 49 44 50 45 2061552878990015e-2
3 1 29 48 660 0 51 45 52 -.000610000000000682 .000577350269189701 -.000999999999
999871 18 51 421 0 53 54 55 48 206155288506695e-22 1 29 52 690 0 56 48 57 -.0006
10000000000682 .00115470053837925 -592327915084486e-33 18 56 446 0 58 55 59 52 2
06155287899005e-22 1 29 57 720 0 60 52 61 -.000610000000000682 .0005773502691896
25 .001 18 60 471 0 62 59 63 57 2061552878990015e-23 1 29 61 721 0 54 57 64 -.00
0610000000000454 -.00115470053837925 423139243289202e-33 18 54 398 0 65 50 51 61
 206155290102589e-22 1 29 64 724 0 66 61 67 -.000610000000000682 -.0005773502691
89701 .000999999999999871 18 66 496 0 68 63 17 64 206155288506695e-22 1 29 67 82
3 0 69 64 70 -326497307696627e-19 1084202172548612e-34 -85265128291212e-27 18 69
 734 0 71 72 0 67 2061558978343845e-23 1 29 70 868 0 50 67 73 -.0006099999999980
17 -.000866025403798813 -.000500000000008299 18 50 397 0 74 47 54 70 ?1 29 73 87
1 0 55 70 75 -.000609999999981792 -625272278313081e-30 -.000999999999996476 18 5
5 422 0 76 51 56 73 ?1 29 75 874 0 59 73 77 -.000609999999998017 .00086602540379
8814 -.000500000000008299 18 59 447 0 78 56 60 75 ?1 29 77 877 0 63 75 18 -.0006
09999999998017 .000866025403798813 .000500000000008299 18 63 472 0 79 60 66 77 ?
1 29 18 880 0 72 77 7 -.000609999999998017 -.000866025403798814 .000500000000008
299 18 72 522 0 80 17 69 18 ?1 17 80 0 81 82 74 72 83 84 0 85 +18 17 497 0 82 66
 72 7 ?1 17 82 0 81 79 80 17 85 15 0 86 +15 255 81 728 0 76 12 0 17 79 0 81 78 8
2 63 86 87 0 88 +17 85 0 89 68 90 72 82 15 0 91 -16 15 696 0 ?82 87 0 6 0 0 1 17
 86 0 92 62 93 17 79 87 0 90 -15 92 664 0 86 94 0 17 62 0 92 93 86 60 95 96 0 97
 -17 93 0 92 86 62 63 98 99 0 100 -16 87 666 0 ?79 101 15 16 0 0 1 17 90 0 89 85
 68 17 102 103 0 95 -15 89 694 0 85 104 0 17 68 0 89 90 85 66 105 106 0 107 -17
 102 0 108 109 95 66 90 103 0 0 +16 103 492 0 ?102 110 96 111 0 0 1 17 95 0 108
 102 97 17 62 96 0 0 +15 108 490 0 102 112 0 17 97 0 108 95 40 60 113 114 0 98 -
16 96 493 0 ?95 103 115 116 0 0 1 16 115 517 0 ?65 96 106 117 0 0 1 133 255 116
 686 0 96 118 119 0 +119 -61e-5 .000577350269189625 .001 -.000609999999981792 -1
40444626702503e-34 .000999999999996476 -1409462824231156e-33 -.00057735026918962
6 30 255 118 685 0 1 120 116 121 --61e-5 .000577350269189625 .001 1 0 0 30 119 6
87 0 1 116 111 122 --61e-5 .000577350269189626 .001 0 1 0 133 111 711 0 103 119
 123 0 +123 -.000609999999981792 -140444626702503e-34 .000999999999996476 -.0006
10000000001364 -.000577350269189626 .001 -.000577350269189626 -.0011547005383792
52 141 255 122 116 122 122 119 30 123 712 0 1 111 124 125 --.000610000000001364
 .000577350269189626 .001 0 1 0 133 124 714 0 110 123 126 0 +126 -.0006100000000
00682 -.000577350269189626 .001 -.00165 -.000577350269189626 .001 68185474627613
4e-30 .00104 141 125 111 125 125 123 16 110 491 0 ?109 127 103 124 0 0 1 30 126
 715 0 1 124 128 129 +-61e-5 -.000577350269189626 .001 -1 0 0 133 128 716 0 106
 126 130 0 +130 -61e-5 -.00057735026918985 .000999999999999612 -.000609999999998
017 -.000866025403798814 .000500000000008299 -4484371854272825e-31 -.00057735026
9189626 141 129 124 129 129 126 16 106 518 0 ?105 115 131 128 0 0 1 30 130 717 0
 1 128 132 133 --61e-5 -.000577350269189626 .001 0 .5 .866025403784439 31 132 82
9 0 134 130 135 0 +.00800000000009504 886154575695712e-34 0 -1 -2891205793253485
e-31 0 2891205793253485e-31 -1 0 .001193499999999402 141 133 128 133 133 130 16
 134 60 0 ?136 21 137 132 0 0 1 31 135 831 0 137 132 138 0 -568433939823244e-28
 1084202172509074e-34 -1419680903003294e-61 -1 1382137976578568e-32 -83250944273
6724e-48 -1382137976578568e-32 -1 0 .001799999999997225 16 137 108 0 ?139 134 14
0 135 0 0 1 31 138 844 0 140 135 141 0 --216840434497101e-33 -812433082989505e-3
8 835238971903811e-67 1 -1382137976671316e-32 105159087507492e-47 13821379766713
16e-32 1 0 .00285 16 140 219 0 ?142 137 143 138 0 0 1 31 141 856 0 143 138 144 0
 +-.00165 227971522842468e-34 -1735124943873615e-51 1 -1382137976671316e-32 1051
59087507492e-47 1382137976671316e-32 1 0 .001925 16 143 273 0 ?145 140 146 141 0
 0 1 31 144 865 0 131 141 147 0 +-.00060999999999467 1084202172485504e-34 0 -1 0
 0 0 0 1 .001000000000033196 16 131 542 0 ?74 106 84 144 0 0 1 31 147 867 0 84 1
44 148 0 +-.00060999999999467 1084202172485504e-34 0 -1 0 0 0 0 1 .0010000000000
33196 16 84 572 0 ?80 131 149 147 0 0 1 31 148 870 0 149 147 150 0 +-.0006099999
9999467 1084202172485504e-34 0 -1 0 0 0 0 1 .001000000000033196 16 149 606 0 ?76
 84 101 148 0 0 1 31 150 873 0 101 148 16 0 +-.00060999999999467 108420217248550
4e-34 0 -1 0 0 0 0 1 .001000000000033196 16 101 636 0 ?78 149 87 150 0 0 1 31 16
 876 0 87 150 6 0 +-.00060999999999467 1084202172485504e-34 0 -1 0 0 0 0 1 .0010
00000000033196 17 78 0 81 76 79 59 88 101 0 151 +17 76 0 81 74 78 55 151 149 0 1
52 +17 88 0 153 58 154 63 78 101 0 93 -17 151 0 155 53 156 59 76 149 0 154 -15 1
55 604 0 151 157 0 17 53 0 155 156 151 51 158 159 0 160 -17 156 0 155 151 53 55
 161 162 0 163 -17 154 0 153 88 58 59 164 165 0 158 -15 153 634 0 88 166 0 17 58
 0 153 154 88 56 100 127 0 167 -17 164 0 168 169 158 56 154 165 0 0 +16 165 442
 0 ?164 170 159 171 0 0 1 17 158 0 168 164 160 59 53 159 0 0 +15 168 440 0 164 1
72 0 17 160 0 168 158 32 51 28 173 0 161 -16 159 443 0 ?158 165 114 174 0 0 1 16
 114 466 0 ?113 159 99 120 0 0 1 133 174 626 0 159 175 176 0 +176 -61e-5 .000577
35026918985 -.000999999999999612 -.000609999999998017 .000866025403798814 -.0005
00000000008299 -4484371854272825e-31 -.000577350269189626 30 175 625 0 1 177 174
 178 --61e-5 .000577350269189626 -.001 1 0 0 30 176 627 0 1 174 171 179 --61e-5
 .000577350269189626 -.001 0 -.5 -.866025403784439 133 171 651 0 165 176 180 0 +
180 -.000609999999998017 .000866025403798814 -.000500000000008299 -.000610000000
001364 .00115470053837925 -433680868994202e-33 -.000577350269189626 -.0011547005
3837925 141 179 174 179 179 176 30 180 652 0 1 171 181 182 --.000610000000001364
 .000577350269189626 -.001 0 -.5 -.866025403784439 133 181 654 0 170 180 183 0 +
183 -.000610000000000682 .00115470053837925 -433680868994202e-33 -.00165 .001154
70053837925 -433680868994202e-33 -681854746276134e-30 -.00104 141 182 171 182 18
2 180 16 170 441 0 ?169 184 165 181 0 0 1 30 183 655 0 1 181 185 186 --61e-5 .00
115470053837925 -433680868994202e-33 1 0 0 133 185 656 0 127 183 187 0 +187 -61e
-5 .00115470053837925 -909622007265054e-33 -.000609999999998017 .000866025403798
813 .000500000000008299 100459620063003e-32 -.000577350269189625 141 186 181 186
 186 183 16 127 468 0 ?100 99 110 185 0 0 1 30 187 657 0 1 185 188 189 --61e-5 .
00115470053837925 0 0 .5 -.866025403784439 133 188 681 0 99 187 190 0 +190 -.000
609999999998017 .000866025403798813 .000500000000008299 -.000610000000001364 .00
0577350269189625 .001 -.000577350269189625 -.00115470053837925 141 189 185 189 1
89 187 16 99 467 0 ?98 114 127 188 0 0 1 30 190 682 0 1 188 120 191 --.000610000
000001364 .00115470053837925 0 0 .5 -.866025403784439 133 120 684 0 114 190 118
 0 +118 -.000610000000000682 .000577350269189625 .001 -.00165 .00057735026918962
5 .001 -681854746276134e-30 -.00104 141 191 188 191 191 190 17 98 0 192 113 100
 60 93 99 0 0 +15 192 465 0 98 193 0 17 113 0 192 37 98 38 97 114 0 194 +17 100
 0 192 98 167 63 58 127 0 0 +17 167 0 192 100 37 56 169 170 0 164 -17 37 0 192 1
67 113 33 194 195 0 169 +17 169 0 168 32 164 33 167 170 0 196 +17 32 0 168 160 1
69 24 196 197 0 28 +17 196 0 198 194 29 33 32 197 0 0 -15 198 339 0 29 199 0 17
 194 0 198 200 196 38 37 195 0 0 -17 29 0 198 196 201 24 23 30 0 0 -16 197 344 0
 ?32 30 195 202 0 0 1 16 30 343 0 ?23 146 197 203 0 0 1 16 195 345 0 ?37 197 204
 205 0 0 1 30 202 360 0 197 203 205 0 +-.00165 .00115470053837925 -1084202172485
504e-34 0 -.5 -.866025403784439 30 203 361 0 30 206 202 0 --.00165 .001 -.001 13
8213797667131e-31 1 0 30 205 359 0 195 202 207 0 +-.00165 .000577350269189626 .0
01 0 .5 -.866025403784439 30 207 358 0 204 205 208 0 +-.00165 .001 .001 13821379
7667131e-31 1 0 16 204 346 0 ?40 195 209 207 0 0 1 133 208 557 0 210 207 211 0 +
211 -61e-5 -.00115470053837925 3231733981213125e-34 -.000609999999998017 -.00086
6025403798813 -.000500000000008299 388296589848949e-33 -.000577350269189625 16 2
10 393 0 ?212 213 214 208 0 0 1 30 211 558 0 1 208 215 216 --61e-5 -.00115470053
837925 0 0 -.5 .866025403784439 133 215 559 0 213 211 217 0 +217 -.0006099999999
98017 -.000866025403798813 -.000500000000008299 -.000610000000001364 -.000577350
269189625 -.001 -.000577350269189625 -.00115470053837925 141 216 208 216 216 211
 16 213 392 0 ?218 219 210 215 0 0 1 30 217 560 0 1 215 220 221 --.0006100000000
01364 -.00115470053837925 0 0 -.5 .866025403784439 133 220 562 0 219 217 222 0 +
222 -.000610000000000682 -.000577350269189625 -.001 -.00165 -.000577350269189625
 -.001 -681854746276134e-30 -.00104 141 221 215 221 221 217 16 219 391 0 ?31 209
 213 220 0 0 1 30 222 563 0 1 220 223 224 --61e-5 -.000577350269189625 -.001 1 0
 0 133 223 564 0 184 222 225 0 +225 -61e-5 -.000577350269189625 -.001 -.00060999
9999981792 -625272278313081e-30 -.000999999999996476 1409462824231156e-33 .00057
7350269189001 141 224 220 224 224 222 16 184 418 0 ?163 162 170 223 0 0 1 30 225
 565 0 1 223 226 227 +-61e-5 -.000577350269189626 -.001 0 1 0 133 226 589 0 214
 225 228 0 +228 -.00165 -.00115470053837925 295723028254991e-33 -61e-5 -.0011547
0053837925 295723028254991e-33 -.00104 3252606517456515e-34 141 227 223 227 227
 225 16 214 394 0 ?229 210 173 226 0 0 1 30 228 590 0 1 226 117 230 +-61e-5 -.00
115470053837925 295723028254991e-33 1 0 0 133 117 591 0 115 228 231 0 +231 -.000
609999999998017 -.000866025403798814 .000500000000008299 -.000610000000001364 -.
00115470053837925 650521303491303e-33 -.000577350269189626 -.00115470053837925 1
41 230 226 230 230 228 30 231 592 0 1 117 232 233 --.000610000000001364 -.000577
350269189626 .001 0 .5 .866025403784439 133 232 597 0 146 231 234 0 +234 -.00165
 -.000577350269189626 -.001 -.00165 -.00115470053837925 216840434497101e-33 0 .0
0115470053837925 141 233 117 233 233 231 16 146 342 0 ?235 143 30 232 0 0 1 30 2
34 598 0 1 232 236 237 +-.00165 -.000577350269189626 -.001 0 -.5 .86602540378443
9 133 236 599 0 209 234 238 0 +238 -.00165 -.00115470053837925 3427919879244535e
-34 -.00165 -.000577350269189626 .001 311392124583823e-33 .00115470053837925 141
 237 232 237 237 234 16 209 347 0 ?43 204 219 236 0 0 1 30 238 600 0 1 236 239 2
40 +-.00165 -.00115470053837925 1084202172485504e-34 0 .5 .866025403784439 133 2
39 621 0 162 238 241 0 +241 -.000609999999981792 -625272278313081e-30 -.00099999
9999996476 -.000610000000001364 .000577350269189626 -.001 .000577350269189001 .0
01154700538379252 141 240 236 240 240 238 16 162 417 0 ?161 173 184 239 0 0 1 30
 241 622 0 1 239 177 242 +-.000610000000001364 -.000577350269189626 -.001 0 1 0
 133 177 624 0 173 241 175 0 +175 -.000610000000000682 .000577350269189626 -.001
 -.00165 .000577350269189626 -.001 -681854746276134e-30 -.00104 141 242 239 242
 242 241 16 173 416 0 ?28 214 162 177 0 0 1 17 28 0 26 23 161 24 160 173 0 29 +1
5 26 415 0 161 243 0 17 161 0 26 28 163 51 156 162 0 0 +17 163 0 26 161 27 55 49
 184 0 0 +17 27 0 26 163 23 47 31 219 0 218 -17 49 0 244 245 152 47 163 184 0 27
 -15 244 540 0 152 246 0 17 245 0 244 152 49 50 218 213 0 212 -17 152 0 244 49 2
45 55 74 131 0 156 -17 74 0 81 80 76 50 152 131 0 83 +17 83 0 247 248 91 50 80 8
4 0 245 -15 247 570 0 83 249 0 17 248 0 247 91 83 54 212 210 0 229 -17 91 0 247
 83 248 72 65 115 0 105 -17 65 0 250 46 105 54 91 115 0 248 +17 105 0 250 65 107
 72 68 106 0 0 +15 250 515 0 65 251 0 17 107 0 250 105 43 66 109 110 0 102 -17 4
3 0 250 107 46 41 252 209 0 109 +17 109 0 108 40 102 41 107 110 0 200 +17 40 0 1
08 97 109 38 200 204 0 113 +17 200 0 198 252 194 41 40 204 0 0 -17 252 0 198 201
 200 44 43 209 0 0 -17 201 0 198 29 252 10 235 146 0 0 -17 235 0 253 229 31 44 2
01 146 0 252 +15 253 390 0 218 254 0 17 229 0 253 212 235 54 46 214 0 0 +17 31 0
 253 235 218 10 27 219 0 201 +17 218 0 253 31 212 47 245 213 0 0 +17 212 0 253 2
18 229 50 248 210 0 0 +17 46 0 250 43 65 44 229 214 0 235 -14 255 254 388 255 1e
-8 199 243 253 4 256 +0 0 243 199 19 81 255 1 255 1269 257 254 258 0 0 259 260 1
4 199 336 259 1e-8 261 254 262 4 263 -0 0 254 261 19 14 243 413 264 1e-8 254 172
 26 4 265 +0 0 172 254 19 50 255 256 401 0 254 263 265 0 +-61e-5 -.0011547005383
7925 0 0 .866025403784439 .5 0 -.5 .866025403784439 13 19 3 0 0 0 0 0 0 8 266 14
 266 2 267 1e-8 0 268 269 4 270 +0 0 268 0 19 81 1 267 1272 257 266 271 0 264 27
2 273 14 268 54 272 1e-8 266 274 275 4 276 +0 0 274 266 19 15 269 883 0 20 266 2
77 51 255 270 6 0 266 0 276 0 +.008 0 0 -1 138213797667131e-31 0 .0015 -13821379
7667131e-31 -1 0 52 276 67 0 268 270 278 0 +.00769350000007307 0 0 -1 -289120579
3253485e-31 0 .001500000000021375 .707106781186548 .707106781186548 289120579325
3485e-31 -1 0 52 278 115 0 274 276 279 0 +2273737003217155e-28 1084202172485504e
-34 250524197617467e-83 -1 1382137976578568e-32 -832509442736724e-48 .0017999999
99946065 .2873478855613505 .95782628522265 -1382137976578568e-32 -1 0 14 274 104
 280 1e-8 268 281 282 4 278 +0 0 281 268 19 50 279 157 0 281 278 283 0 +.008 .00
11935 0 -1 138213797667131e-31 0 -138213797667131e-31 -1 0 14 281 150 284 1e-8 2
74 285 286 4 279 -0 0 285 274 19 50 283 225 0 285 279 287 0 +-263794318743852e-3
3 .00285 0 -1 138213797667131e-31 0 -138213797667131e-31 -1 0 14 285 213 288 1e-
8 281 261 289 4 283 -0 0 261 281 19 68 255 287 279 0 261 283 263 0 +206 .0004896
86222464172 -67762635780344e-34 51494956319323e-50 1 -1382137976671316e-32 10515
9087507492e-47 .00333937104600625 -420128341838133e-33 351165212046956e-50 -.002
359998601077905 2778268066994105e-34 -24817529940831e-49 -1.585668466466955 1.58
5668466466955 0 1 288771809559952e-64 ?14 261 268 290 1e-8 285 199 291 4 287 +0
 0 199 285 19 50 263 356 0 199 287 256 0 +-.00165 .001 0 1 -138213797667131e-31
 0 138213797667131e-31 1 0 31 206 284 0 1 22 203 292 +.000489686222464172 423840
3560441515e-20 51494956319323e-50 -105159087507492e-47 0 1 0 1 0 .00285 31 22 25
6 0 9 293 206 0 -.001 967496583669917e-34 0 -1 138213797667131e-31 0 -1382137976
67131e-31 -1 0 .0015 141 292 287 292 292 206 31 293 211 0 21 0 22 0 +.0076935 42
36252898497545e-36 0 -1 138213797667131e-31 0 -138213797667131e-31 -1 0 .0015 16
 21 10 0 ?294 9 134 293 0 0 1 17 294 0 277 294 294 0 295 21 0 0 +15 277 8 0 294
 266 0 17 295 0 296 295 295 0 294 21 0 0 -15 296 56 0 295 268 0 81 1 290 1277 25
7 261 297 0 288 298 299 15 291 889 0 145 261 300 17 145 0 291 145 145 0 301 143
 0 0 +15 300 270 0 142 261 0 17 142 0 300 142 142 0 302 140 0 0 +17 302 0 303 30
2 302 0 142 140 0 0 -15 303 216 0 302 285 0 17 301 0 262 301 301 0 145 143 0 0 -
15 262 338 0 301 199 198 80 255 1 257 304 305 9000 1 1 1 1 1 1 1 1 0 FFFFTFTFFFF
FFF1 81 1 297 1221 306 261 0 290 307 308 309 81 1 288 1276 257 285 308 0 284 290
 310 81 1 298 1278 257 172 311 0 290 312 313 82 255 1 299 999999 14 172 438 298
 1e-8 243 193 168 4 314 +0 0 193 243 19 81 1 311 1217 306 172 0 298 315 316 317
 81 1 312 1279 257 193 315 0 298 318 319 82 1 313 999999 14 193 463 312 1e-8 172
 112 192 4 320 +0 0 112 172 19 81 1 315 1216 306 193 0 312 321 311 322 81 1 318
 1280 257 112 321 0 312 323 324 82 1 319 999999 14 112 488 318 1e-8 193 251 108
 4 325 +0 0 251 193 19 81 1 321 1215 306 112 0 318 326 315 327 81 1 323 1281 257
 251 326 0 318 328 329 82 1 324 999999 14 251 513 323 1e-8 112 246 250 4 330 +0
 0 246 112 19 81 1 326 1214 306 251 0 323 331 321 332 81 1 328 1282 257 246 331
 0 323 333 334 82 1 329 999999 14 246 538 328 1e-8 251 249 244 4 335 -0 0 249 25
1 19 81 1 331 1213 306 246 0 328 336 326 337 81 1 333 1283 257 249 336 0 328 338
 339 82 1 334 999999 14 249 568 333 1e-8 246 157 247 4 340 -0 0 157 246 19 81 1
 336 1212 306 249 0 333 341 331 342 81 1 338 1284 257 157 341 0 333 343 344 82 1
 339 999999 14 157 602 338 1e-8 249 166 155 4 345 -0 0 166 249 19 81 1 341 1211
 306 157 0 338 346 336 347 81 1 343 1285 257 166 346 0 338 348 349 82 1 344 9999
99 14 166 632 343 1e-8 157 94 153 4 350 -0 0 94 157 19 81 1 346 1210 306 166 0 3
43 351 341 352 81 1 348 1286 257 94 351 0 343 353 354 82 1 349 999999 14 94 662
 348 1e-8 166 104 92 4 355 -0 0 104 166 19 81 1 351 1209 306 94 0 348 356 346 35
7 81 1 353 1287 257 104 356 0 348 358 359 82 1 354 999999 14 104 692 353 1e-8 94
 12 89 4 14 -0 0 12 94 19 81 1 356 1208 306 104 0 353 360 351 361 81 1 358 1288
 257 12 360 0 353 0 362 82 1 359 999999 14 12 726 358 1e-8 104 0 363 4 5 -0 0 0
 104 19 81 1 360 1207 306 12 0 358 0 356 364 82 1 362 999999 80 1 306 0 365 8001
 0 0 0 0 3 5 0 0 0 FFFFTFTFFFFFFF2 83 255 3 364 .776470588235294 .75686274509803
9 .737254901960784 79 255 15 365 SDL/TYSA_COLOUR15 363 891 0 71 12 81 17 71 0 36
3 71 71 69 0 0 0 0 ?83 3 361 .776470588235294 .756862745098039 .737254901960784
 50 14 701 0 104 355 5 0 +-61e-5 0 0 1 0 0 0 0 -1 50 355 671 0 94 350 14 0 +-61e
-5 0 0 1 0 0 0 0 -1 50 350 641 0 166 345 355 0 +-61e-5 0 0 1 0 0 0 0 -1 50 345 6
11 0 157 340 350 0 +-61e-5 0 0 1 0 0 0 0 -1 50 340 577 0 249 335 345 0 +-61e-5 0
 0 1 0 0 0 0 -1 50 335 547 0 246 330 340 0 +-61e-5 0 0 1 0 0 0 0 -1 50 330 526 0
 251 325 335 0 +-61e-5 -.000577350269189626 .001 0 .866025403784439 -.5 0 .5 .86
6025403784439 50 325 501 0 112 320 330 0 +-61e-5 .000577350269189626 .001 0 0 -1
 -1 0 0 50 320 476 0 193 314 325 0 +-61e-5 .00115470053837925 0 0 -.866025403784
439 -.5 0 .5 -.866025403784439 50 314 451 0 172 265 320 0 +-61e-5 .0005773502691
89626 -.001 0 -.866025403784439 .5 0 -.5 -.866025403784439 50 265 426 0 243 256
 314 0 +-61e-5 -.000577350269189626 -.001 0 0 1 1 0 0 83 3 357 .776470588235294
 .756862745098039 .737254901960784 83 3 352 .776470588235294 .756862745098039 .7
37254901960784 83 3 347 .776470588235294 .756862745098039 .737254901960784 83 3
 342 .776470588235294 .756862745098039 .737254901960784 83 3 337 .77647058823529
4 .756862745098039 .737254901960784 83 3 332 .776470588235294 .756862745098039 .
737254901960784 83 3 327 .776470588235294 .756862745098039 .737254901960784 83 3
 322 .776470588235294 .756862745098039 .737254901960784 81 1 316 1218 306 243 0
 264 311 258 366 83 3 317 .776470588235294 .756862745098039 .737254901960784 81
 1 264 1271 257 243 316 0 259 267 367 81 1 258 1219 306 254 0 255 316 307 368 83
 3 366 .776470588235294 .756862745098039 .737254901960784 81 1 307 1220 306 199
 0 259 258 297 369 83 3 368 .776470588235294 .756862745098039 .737254901960784 8
1 1 259 1270 257 199 307 0 255 264 370 83 3 369 .776470588235294 .75686274509803
9 .737254901960784 82 1 370 999999 82 1 367 999999 81 1 308 1222 306 285 0 288 2
97 371 372 81 1 284 1275 257 281 371 0 280 288 373 82 1 310 999999 81 1 371 1223
 306 281 0 284 308 374 375 81 1 280 1274 257 274 374 0 272 284 376 82 1 373 9999
99 81 1 374 1224 306 274 0 280 371 377 378 81 1 272 1273 257 268 377 0 267 280 3
79 82 1 376 999999 81 1 377 1225 306 268 0 272 374 271 380 82 1 379 999999 81 1
 271 1226 306 266 0 267 377 0 381 83 3 380 .776470588235294 .756862745098039 .73
7254901960784 83 3 381 .776470588235294 .756862745098039 .737254901960784 83 3 3
78 .776470588235294 .756862745098039 .737254901960784 83 3 375 .776470588235294
 .756862745098039 .737254901960784 83 3 372 .776470588235294 .756862745098039 .7
37254901960784 83 3 309 .776470588235294 .756862745098039 .737254901960784 79 14
 305 SWEntUnchanged15 289 215 0 382 285 303 17 382 0 289 382 382 0 139 137 0 0 -
17 139 0 282 139 139 0 382 137 0 0 +15 282 887 0 139 274 383 15 383 106 0 384 27
4 0 17 384 0 383 384 384 0 20 9 0 0 -17 20 0 269 20 20 0 384 9 0 0 +15 286 152 0
 385 281 0 17 385 0 286 385 385 0 136 134 0 0 -17 136 0 275 136 136 0 385 134 0
 0 +15 275 885 0 136 268 296 82 1 273 999999 82 1 260 999999 141 178 177 178 178
 175 141 121 120 121 121 118 19 13 826 0 1 0 8 4 S0 74 4 CI16 index_map_offset0
 0 1 dCCZ20 11 2 0 0 358 271 0 0 0 0 0 0 0 0 0 0 0 0 0 0 0 0 0 0 1 0 
